#!OML:ASF E:\Steps\Project 1\Capture day 1\Session 2\Subject.ASF
:FULLY-SPECIFIED
:DEGREES
287
root 10.1216 16.3381 19.3459 -156.88 -5.15861 170.66
lowerback -14.0622 0.163564 -0.783528
upperback 2.79186 0.38858 -0.274297
thorax 10.9649 0.143858 0.235706
lowerneck -3.041 4.12704 1.59844
upperneck 22.2495 4.18047 -0.353794
head 7.35314 1.5736 -0.153049
rclavicle -5.56597e-015 9.54166e-015
rhumerus -26.9004 -8.12907 -70.3204
rradius 50.8178
rwrist -7.19708
rhand -5.09797 -55.3
rfingers 7.12502
rthumb 20.6993 -84.2162
lclavicle -5.56597e-015 9.54166e-015
lhumerus -37.7696 3.60829 73.1575
lradius 25.7862
lwrist -3.49017
lhand -16.0667 -15.9195
lfingers 7.12502
lthumb 10.1358 13.8164
rfemur -18.728 6.38659 -13.1013
rtibia 31.8665
rfoot -38.3764 -18.6541
rtoes -37.614
lfemur -46.0877 -3.07546 -0.817937
ltibia 32.4572
lfoot -7.86723 1.56658
ltoes -39.2863
288
root 10.0096 16.3134 19.3178 -156.864 -5.46279 171.005
lowerback -13.5999 0.0907454 -1.21928
upperback 2.76587 0.367751 -0.337264
thorax 10.6624 0.109716 0.407141
lowerneck -2.96593 3.93971 1.94398
upperneck 22.358 3.80044 -0.11399
head 7.37559 1.42859 -0.162542
rclavicle 1.43125e-014 1.27222e-014
rhumerus -27.6562 -9.50058 -70.3362
rradius 51.0335
rwrist -7.22691
rhand -5.26716 -54.7345
rfingers 7.12502
rthumb 20.5367 -83.6682
lclavicle 1.43125e-014 1.27222e-014
lhumerus -37.4373 2.39744 73.0857
lradius 25.9216
lwrist -3.52773
lhand -16.3455 -15.7426
lfingers 7.12502
lthumb 9.86683 14.0062
rfemur -18.0033 6.96298 -12.9678
rtibia 30.9546
rfoot -37.8821 -19.1456
rtoes -37.3275
lfemur -47.1035 -2.69405 -1.04095
ltibia 34.3037
lfoot -8.46097 0.357062
ltoes -36.9374
289
root 9.89259 16.2915 19.2899 -156.737 -5.78416 171.185
lowerback -13.2779 -0.118814 -1.7214
upperback 2.79456 0.170736 -0.375861
thorax 10.5081 -0.0141385 0.604355
lowerneck -2.9616 3.82194 1.93789
upperneck 22.1986 3.57034 0.251572
head 7.31289 1.35212 -0.0598033
rclavicle -2.78299e-014 0
rhumerus -28.194 -10.4535 -70.3464
rradius 51.2882
rwrist -7.25597
rhand -4.69045 -52.4371
rfingers 7.12502
rthumb 21.0908 -81.31
lclavicle -2.78299e-014 0
lhumerus -37.0696 1.40865 73.0449
lradius 26.0885
lwrist -3.35934
lhand -16.6312 -15.6559
lfingers 7.12502
lthumb 9.59114 14.1058
rfemur -17.2436 7.55942 -13.042
rtibia 29.8906
rfoot -37.4178 -19.7608
rtoes -37.1482
lfemur -48.2806 -2.51402 -1.38587
ltibia 36.1127
lfoot -8.86624 -0.597242
ltoes -34.4428
290
root 9.77243 16.2728 19.2646 -156.45 -6.06446 171.586
lowerback -13.1554 -0.278937 -1.97948
upperback 2.79851 -0.00793528 -0.3226
thorax 10.4457 -0.117149 0.768488
lowerneck -3.01385 3.72591 1.96724
upperneck 22.1438 3.39581 0.433379
head 7.30011 1.28671 -0.0176616
rclavicle -1.19271e-014 -1.74931e-014
rhumerus -28.7409 -11.1838 -70.3042
rradius 51.7612
rwrist -7.44966
rhand -4.64533 -52.8539
rfingers 7.12502
rthumb 21.1342 -81.7221
lclavicle -1.19271e-014 -1.74931e-014
lhumerus -36.542 0.818572 72.9486
lradius 26.1881
lwrist -3.53991
lhand -16.9012 -15.6047
lfingers 7.12502
lthumb 9.33067 14.1689
rfemur -16.7051 8.06153 -12.9263
rtibia 28.8297
rfoot -36.897 -20.4788
rtoes -37.9614
lfemur -49.5712 -2.32165 -1.4386
ltibia 37.7899
lfoot -9.26035 -1.13486
ltoes -34.3457
291
root 9.65351 16.2585 19.2416 -156.109 -6.25918 172.164
lowerback -13.1157 -0.373609 -2.09078
upperback 2.79333 -0.125224 -0.231637
thorax 10.4209 -0.182915 0.904207
lowerneck -3.15198 3.62247 2.01059
upperneck 22.2806 3.18665 0.610416
head 7.36619 1.19877 0.0194275
rclavicle 1.59028e-015 4.77083e-015
rhumerus -29.1656 -12.0139 -70.2792
rradius 52.1242
rwrist -7.58247
rhand 1.40046 -68.407
rfingers 7.12502
rthumb 26.9311 96.508
lclavicle 1.59028e-015 4.77083e-015
lhumerus -35.9547 0.324351 72.8655
lradius 26.4624
lwrist -3.93697
lhand -17.2553 -15.1783
lfingers 7.12502
lthumb 8.98902 14.6102
rfemur -16.7555 8.67755 -12.5928
rtibia 28.5753
rfoot -36.4694 -21.5839
rtoes -39.6805
lfemur -50.7842 -2.00286 -1.32019
ltibia 39.2158
lfoot -9.60413 -1.56873
ltoes -35.4776
292
root 9.53806 16.251 19.2174 -155.907 -6.35916 172.614
lowerback -12.9382 -0.47819 -2.36206
upperback 2.8153 -0.228745 -0.187391
thorax 10.3469 -0.250459 1.08316
lowerneck -3.24702 3.57774 1.87531
upperneck 22.4257 3.02578 1.01064
head 7.42061 1.13641 0.161803
rclavicle 2.94201e-014 3.02153e-014
rhumerus -29.6672 -12.6556 -70.2799
rradius 52.4912
rwrist -7.76545
rhand -5.81551 -54.0371
rfingers 7.12502
rthumb 20.0097 -83.0268
lclavicle 2.94201e-014 3.02153e-014
lhumerus -35.3986 -0.239962 72.7481
lradius 26.8489
lwrist -3.94983
lhand -17.4609 -14.8336
lfingers 7.12502
lthumb 8.79059 14.9634
rfemur -16.5511 9.30496 -12.3889
rtibia 27.9786
rfoot -35.8219 -22.4279
rtoes -40.3028
lfemur -51.6714 -1.79103 -1.34603
ltibia 40.4538
lfoot -10.0912 -1.95827
ltoes -36.7471
